


mtllib 海信\光束_方.mtl





v  -67.9272 88.8294 127.8708
v  -17.6516 88.8294 127.8708
v  -17.6516 205.8598 127.8708
v  -67.9272 205.8598 127.8708
v  -67.9272 205.8598 77.5952
v  -17.6516 205.8598 77.5952
v  -17.6516 88.8294 77.5952
v  -67.9272 88.8294 77.5952


vn 0.0000 -0.0000 1.0000
vn 0.0000 0.0000 -1.0000
vn 1.0000 0.0000 -0.0000
vn -1.0000 0.0000 -0.0000


vt 0.2465 0.0703 0.0000
vt 0.6333 0.0703 0.0000
vt 0.6333 0.8359 0.0000
vt 0.2465 0.8359 0.0000


g pCube3
usemtl lambert4
s off
f 1/1/1 2/2/1 3/3/1 4/4/1 
f 5/3/2 6/4/2 7/1/2 8/2/2 
f 2/1/3 7/2/3 6/3/3 3/4/3 
f 8/1/4 1/2/4 4/3/4 5/4/4 


