


mtllib º£ĞÅ\¹âÊø_Ô²×¶.mtl





v  165.6315 -76.0716 137.8358
v  157.3643 -76.0716 129.5686
v  163.7637 -36.9920 118.4845
v  176.7156 -36.9920 131.4364
v  146.0712 -76.0716 126.5427
v  146.0712 -36.9920 113.7439
v  134.7780 -76.0716 129.5686
v  128.3786 -36.9920 118.4845
v  126.5108 -76.0716 137.8358
v  115.4267 -36.9920 131.4364
v  123.4849 -76.0716 149.1290
v  110.6861 -36.9920 149.1290
v  126.5108 -76.0716 160.4221
v  115.4267 -36.9920 166.8215
v  134.7780 -76.0716 168.6893
v  128.3786 -36.9920 179.7734
v  146.0712 -76.0716 171.7152
v  146.0712 -36.9920 184.5141
v  157.3643 -76.0716 168.6893
v  163.7637 -36.9920 179.7734
v  165.6315 -76.0716 160.4221
v  176.7156 -36.9920 166.8215
v  168.6574 -76.0716 149.1290
v  181.4563 -36.9920 149.1290


vn 0.8170 -0.3316 -0.4717
vn 0.4717 -0.3316 -0.8170
vn 0.0000 -0.3316 -0.9434
vn -0.4717 -0.3316 -0.8170
vn -0.8170 -0.3316 -0.4717
vn -0.9434 -0.3316 -0.0000
vn -0.8170 -0.3316 0.4717
vn -0.4717 -0.3316 0.8170
vn 0.0000 -0.3316 0.9434
vn 0.4717 -0.3316 0.8170
vn 0.8170 -0.3316 0.4717
vn 0.9434 -0.3316 -0.0000
vn 0.9434 -0.3316 0.0000


vt 0.2189 0.1690 0.0000
vt 0.2658 0.1690 0.0000
vt 0.2658 0.7871 0.0000
vt 0.2189 0.7871 0.0000
vt 0.3126 0.1690 0.0000
vt 0.3126 0.7871 0.0000
vt 0.3595 0.1690 0.0000
vt 0.3595 0.7871 0.0000
vt 0.4063 0.1690 0.0000
vt 0.4063 0.7871 0.0000
vt 0.4532 0.1690 0.0000
vt 0.4532 0.7871 0.0000
vt 0.5000 0.1690 0.0000
vt 0.5000 0.7871 0.0000
vt 0.5468 0.1690 0.0000
vt 0.5468 0.7871 0.0000
vt 0.5937 0.1690 0.0000
vt 0.5937 0.7871 0.0000
vt 0.6405 0.1690 0.0000
vt 0.6405 0.7871 0.0000
vt 0.6874 0.1690 0.0000
vt 0.6874 0.7871 0.0000
vt 0.7342 0.1690 0.0000
vt 0.7342 0.7871 0.0000
vt 0.7811 0.1690 0.0000
vt 0.7811 0.7871 0.0000


g pCylinder7
usemtl lambert4
s off
f 1/1/1 2/2/2 3/3/2 4/4/1 
f 2/2/2 5/5/3 6/6/3 3/3/2 
f 5/5/3 7/7/4 8/8/4 6/6/3 
f 7/7/4 9/9/5 10/10/5 8/8/4 
f 9/9/5 11/11/6 12/12/6 10/10/5 
f 11/11/6 13/13/7 14/14/7 12/12/6 
f 13/13/7 15/15/8 16/16/8 14/14/7 
f 15/15/8 17/17/9 18/18/9 16/16/8 
f 17/17/9 19/19/10 20/20/10 18/18/9 
f 19/19/10 21/21/11 22/22/11 20/20/10 
f 21/21/11 23/23/12 24/24/13 22/22/11 
f 23/23/12 1/25/1 4/26/1 24/24/13 


