


mtllib 海信\检测服务_底座.mtl





v  -76.7187 -71.8768 142.6490
v  -76.7187 -87.8148 142.6490
v  -8.8602 -87.8148 142.6490
v  -8.8602 -71.8768 142.6490
v  -76.7187 -87.8148 62.8169
v  -76.7187 -71.8768 62.8169
v  -8.8602 -71.8768 62.8169
v  -8.8602 -87.8148 62.8169
v  -2.8733 -71.8768 136.6622
v  -2.8733 -87.8148 136.6622
v  -2.8733 -87.8148 68.8037
v  -2.8733 -71.8768 68.8037
v  -82.7055 -71.8768 68.8037
v  -82.7055 -87.8148 68.8037
v  -82.7055 -87.8148 136.6622
v  -82.7055 -71.8768 136.6622
v  -82.2497 -87.8148 138.9533
v  -82.2497 -71.8768 138.9533
v  -80.9520 -87.8148 140.8955
v  -80.9520 -71.8768 140.8955
v  -79.0097 -87.8148 142.1933
v  -79.0097 -71.8768 142.1933
v  -6.5691 -87.8148 142.1933
v  -6.5691 -71.8768 142.1933
v  -4.6268 -87.8148 140.8955
v  -4.6268 -71.8768 140.8955
v  -3.3291 -87.8148 138.9533
v  -3.3291 -71.8768 138.9533
v  -82.2497 -71.8768 66.5127
v  -82.2497 -87.8148 66.5127
v  -80.9520 -71.8768 64.5704
v  -80.9520 -87.8148 64.5704
v  -79.0097 -71.8768 63.2726
v  -79.0097 -87.8148 63.2726
v  -6.5691 -71.8768 63.2726
v  -6.5691 -87.8148 63.2726
v  -4.6268 -71.8768 64.5704
v  -4.6268 -87.8148 64.5704
v  -3.3291 -71.8768 66.5127
v  -3.3291 -87.8148 66.5127
v  -42.8139 -71.8768 102.6977


vn -0.0065 -0.0000 1.0000
vn 0.0065 -0.0000 1.0000
vn -0.0065 0.0000 -1.0000
vn 0.0065 0.0000 -1.0000
vn 1.0000 -0.0000 0.0065
vn 1.0000 0.0000 -0.0065
vn -1.0000 0.0000 -0.0065
vn -1.0000 -0.0000 0.0065
vn -0.9239 -0.0000 0.3827
vn -0.7071 -0.0000 0.7071
vn -0.3827 -0.0000 0.9239
vn 0.3827 -0.0000 0.9239
vn 0.7071 -0.0000 0.7071
vn 0.9239 -0.0000 0.3827
vn -0.9239 0.0000 -0.3827
vn -0.7071 0.0000 -0.7071
vn -0.3827 0.0000 -0.9239
vn 0.3827 0.0000 -0.9239
vn 0.7071 0.0000 -0.7071
vn 0.9239 0.0000 -0.3827
vn 0.0000 1.0000 0.0000
vn -0.0000 1.0000 0.0000
vn -0.0000 1.0000 -0.0000


vt 0.0671 0.2864 0.0000
vt 0.0671 0.1982 0.0000
vt 0.4425 0.1982 0.0000
vt 0.4425 0.2864 0.0000
vt 0.4942 0.1982 0.0000
vt 0.4942 0.2864 0.0000
vt 0.8697 0.2864 0.0000
vt 0.8697 0.1982 0.0000
vt 0.0154 0.1982 0.0000
vt 0.0283 0.1982 0.0000
vt 0.0283 0.2864 0.0000
vt 0.0154 0.2864 0.0000
vt 0.0412 0.1982 0.0000
vt 0.0412 0.2864 0.0000
vt 0.0542 0.1982 0.0000
vt 0.0542 0.2864 0.0000
vt 0.4555 0.1982 0.0000
vt 0.4555 0.2864 0.0000
vt 0.4684 0.1982 0.0000
vt 0.4684 0.2864 0.0000
vt 0.4813 0.1982 0.0000
vt 0.4813 0.2864 0.0000
vt 0.4554 0.2864 0.0000
vt 0.4554 0.1982 0.0000
vt 0.9214 0.2863 0.0000
vt 0.9084 0.2864 0.0000
vt 0.9084 0.1982 0.0000
vt 0.9214 0.1982 0.0000
vt 0.8955 0.2864 0.0000
vt 0.8955 0.1982 0.0000
vt 0.8826 0.2864 0.0000
vt 0.8826 0.1982 0.0000
vt 0.2979 0.6946 0.0000
vt 0.2933 0.7016 0.0000
vt 0.1560 0.5646 0.0000
vt 0.2863 0.7063 0.0000
vt 0.2781 0.7079 0.0000
vt 0.0342 0.7079 0.0000
vt 0.0259 0.7063 0.0000
vt 0.0189 0.7016 0.0000
vt 0.0143 0.6946 0.0000
vt 0.0126 0.6864 0.0000
vt 0.0126 0.4425 0.0000
vt 0.0143 0.4342 0.0000
vt 0.0189 0.4273 0.0000
vt 0.0259 0.4226 0.0000
vt 0.0342 0.4210 0.0000
vt 0.2781 0.4210 0.0000
vt 0.2863 0.4226 0.0000
vt 0.2933 0.4273 0.0000
vt 0.2979 0.4342 0.0000
vt 0.2996 0.4425 0.0000
vt 0.2996 0.6864 0.0000


g pCube1
usemtl lambert2
s off
f 1/1/1 2/2/1 3/3/2 4/4/2 
f 5/5/3 6/6/3 7/7/4 8/8/4 
f 9/6/5 10/5/5 11/8/6 12/7/6 
f 13/4/7 14/3/7 15/2/8 16/1/8 
f 15/9/8 17/10/9 18/11/9 16/12/8 
f 17/10/9 19/13/10 20/14/10 18/11/9 
f 19/13/10 21/15/11 22/16/11 20/14/10 
f 21/15/11 2/2/1 1/1/1 22/16/11 
f 3/3/2 23/17/12 24/18/12 4/4/2 
f 23/17/12 25/19/13 26/20/13 24/18/12 
f 25/19/13 27/21/14 28/22/14 26/20/13 
f 27/21/14 10/5/5 9/6/5 28/22/14 
f 13/4/7 29/23/15 30/24/15 14/3/7 
f 29/23/15 31/20/16 32/19/16 30/24/15 
f 31/20/16 33/22/17 34/21/17 32/19/16 
f 33/22/17 6/6/3 5/5/3 34/21/17 
f 7/25/4 35/26/18 36/27/18 8/28/4 
f 35/26/18 37/29/19 38/30/19 36/27/18 
f 37/29/19 39/31/20 40/32/20 38/30/19 
f 39/31/20 12/7/6 11/8/6 40/32/20 
f 39/33/21 37/34/21 41/35/22 
f 37/34/21 35/36/21 41/35/22 
f 35/36/21 7/37/21 41/35/22 
f 7/37/21 6/38/22 41/35/22 
f 6/38/22 33/39/23 41/35/22 
f 33/39/23 31/40/23 41/35/22 
f 31/40/23 29/41/22 41/35/22 
f 29/41/22 13/42/22 41/35/22 
f 13/42/22 16/43/22 41/35/22 
f 16/43/22 18/44/22 41/35/22 
f 18/44/22 20/45/22 41/35/22 
f 20/45/22 22/46/22 41/35/22 
f 22/46/22 1/47/22 41/35/22 
f 4/48/21 24/49/21 41/35/22 
f 24/49/21 26/50/21 41/35/22 
f 26/50/21 28/51/21 41/35/22 
f 28/51/21 9/52/21 41/35/22 
f 12/53/21 39/33/21 41/35/22 
f 4/48/21 41/35/22 1/47/22 
f 12/53/21 41/35/22 9/52/21 


