


mtllib 海信\检测服务_灯.mtl





v  -65.4738 -70.9613 129.4200
v  -65.4738 -72.9948 129.4200
v  -20.1050 -72.9948 129.4200
v  -20.1050 -70.9613 129.4200
v  -65.4738 -72.9948 76.0459
v  -65.4738 -70.9613 76.0459
v  -20.1050 -70.9613 76.0459
v  -20.1050 -72.9948 76.0459
v  -16.1024 -70.9613 125.4174
v  -16.1024 -72.9948 125.4174
v  -16.1024 -72.9948 80.0486
v  -16.1024 -70.9613 80.0486
v  -69.4764 -70.9613 80.0486
v  -69.4764 -72.9948 80.0486
v  -69.4764 -72.9948 125.4174
v  -69.4764 -70.9613 125.4174
v  -69.1718 -72.9948 126.9491
v  -69.1718 -70.9613 126.9491
v  -68.3041 -72.9948 128.2477
v  -68.3041 -70.9613 128.2477
v  -67.0055 -72.9948 129.1153
v  -67.0055 -70.9613 129.1153
v  -18.5733 -72.9948 129.1153
v  -18.5733 -70.9613 129.1153
v  -17.2747 -72.9948 128.2477
v  -17.2747 -70.9613 128.2477
v  -16.4070 -72.9948 126.9491
v  -16.4070 -70.9613 126.9491
v  -69.1718 -70.9613 78.5169
v  -69.1718 -72.9948 78.5169
v  -68.3041 -70.9613 77.2183
v  -68.3041 -72.9948 77.2183
v  -67.0055 -70.9613 76.3506
v  -67.0055 -72.9948 76.3506
v  -18.5733 -70.9613 76.3506
v  -18.5733 -72.9948 76.3506
v  -17.2747 -70.9613 77.2183
v  -17.2747 -72.9948 77.2183
v  -16.4070 -70.9613 78.5169
v  -16.4070 -72.9948 78.5169
v  -42.8058 -70.9613 102.7094


vn -0.0065 -0.0000 1.0000
vn 0.0065 -0.0000 1.0000
vn -0.0065 0.0000 -1.0000
vn 0.0065 0.0000 -1.0000
vn 1.0000 -0.0000 0.0065
vn 1.0000 0.0000 -0.0065
vn -1.0000 0.0000 -0.0065
vn -1.0000 -0.0000 0.0065
vn -0.9239 -0.0000 0.3827
vn -0.7071 -0.0000 0.7071
vn -0.3827 -0.0000 0.9239
vn 0.3827 -0.0000 0.9239
vn 0.7071 -0.0000 0.7071
vn 0.9239 -0.0000 0.3827
vn -0.9239 0.0000 -0.3827
vn -0.7071 0.0000 -0.7071
vn -0.3827 0.0000 -0.9239
vn 0.3827 0.0000 -0.9239
vn 0.7071 0.0000 -0.7071
vn 0.9239 0.0000 -0.3827
vn 0.0000 1.0000 0.0000
vn -0.0000 1.0000 0.0000
vn -0.0000 1.0000 -0.0000


vt 0.7016 0.7200 0.0000
vt 0.7016 0.6947 0.0000
vt 0.8095 0.6947 0.0000
vt 0.8095 0.7200 0.0000
vt 0.8244 0.6947 0.0000
vt 0.8244 0.7200 0.0000
vt 0.9323 0.7200 0.0000
vt 0.9323 0.6947 0.0000
vt 0.6867 0.6947 0.0000
vt 0.6905 0.6947 0.0000
vt 0.6905 0.7200 0.0000
vt 0.6867 0.7200 0.0000
vt 0.6942 0.6947 0.0000
vt 0.6942 0.7200 0.0000
vt 0.6979 0.6947 0.0000
vt 0.6979 0.7200 0.0000
vt 0.8132 0.6947 0.0000
vt 0.8132 0.7200 0.0000
vt 0.8170 0.6947 0.0000
vt 0.8170 0.7200 0.0000
vt 0.8207 0.6947 0.0000
vt 0.8207 0.7200 0.0000
vt 0.9472 0.7200 0.0000
vt 0.9435 0.7200 0.0000
vt 0.9435 0.6947 0.0000
vt 0.9472 0.6947 0.0000
vt 0.9397 0.7200 0.0000
vt 0.9397 0.6947 0.0000
vt 0.9360 0.7200 0.0000
vt 0.9360 0.6947 0.0000
vt 0.9474 0.9788 0.0000
vt 0.9431 0.9852 0.0000
vt 0.8163 0.8587 0.0000
vt 0.9366 0.9896 0.0000
vt 0.9290 0.9911 0.0000
vt 0.7037 0.9911 0.0000
vt 0.6961 0.9896 0.0000
vt 0.6897 0.9852 0.0000
vt 0.6854 0.9788 0.0000
vt 0.6839 0.9712 0.0000
vt 0.6839 0.7459 0.0000
vt 0.6854 0.7383 0.0000
vt 0.6897 0.7319 0.0000
vt 0.6961 0.7275 0.0000
vt 0.7037 0.7260 0.0000
vt 0.9290 0.7260 0.0000
vt 0.9366 0.7275 0.0000
vt 0.9431 0.7319 0.0000
vt 0.9474 0.7383 0.0000
vt 0.9489 0.7459 0.0000
vt 0.9489 0.9712 0.0000


g pCube13
usemtl lambert2
s off
f 1/1/1 2/2/1 3/3/2 4/4/2 
f 5/5/3 6/6/3 7/7/4 8/8/4 
f 9/6/5 10/5/5 11/8/6 12/7/6 
f 13/4/7 14/3/7 15/2/8 16/1/8 
f 15/9/8 17/10/9 18/11/9 16/12/8 
f 17/10/9 19/13/10 20/14/10 18/11/9 
f 19/13/10 21/15/11 22/16/11 20/14/10 
f 21/15/11 2/2/1 1/1/1 22/16/11 
f 3/3/2 23/17/12 24/18/12 4/4/2 
f 23/17/12 25/19/13 26/20/13 24/18/12 
f 25/19/13 27/21/14 28/22/14 26/20/13 
f 27/21/14 10/5/5 9/6/5 28/22/14 
f 13/4/7 29/18/15 30/17/15 14/3/7 
f 29/18/15 31/20/16 32/19/16 30/17/15 
f 31/20/16 33/22/17 34/21/17 32/19/16 
f 33/22/17 6/6/3 5/5/3 34/21/17 
f 7/23/4 35/24/18 36/25/18 8/26/4 
f 35/24/18 37/27/19 38/28/19 36/25/18 
f 37/27/19 39/29/20 40/30/20 38/28/19 
f 39/29/20 12/7/6 11/8/6 40/30/20 
f 39/31/21 37/32/21 41/33/22 
f 37/32/21 35/34/21 41/33/22 
f 35/34/21 7/35/21 41/33/22 
f 7/35/21 6/36/22 41/33/22 
f 6/36/22 33/37/23 41/33/22 
f 33/37/23 31/38/23 41/33/22 
f 31/38/23 29/39/22 41/33/22 
f 29/39/22 13/40/22 41/33/22 
f 13/40/22 16/41/22 41/33/22 
f 16/41/22 18/42/22 41/33/22 
f 18/42/22 20/43/22 41/33/22 
f 20/43/22 22/44/22 41/33/22 
f 22/44/22 1/45/22 41/33/22 
f 4/46/21 24/47/21 41/33/22 
f 24/47/21 26/48/21 41/33/22 
f 26/48/21 28/49/21 41/33/22 
f 28/49/21 9/50/21 41/33/22 
f 12/51/21 39/31/21 41/33/22 
f 4/46/21 41/33/22 1/45/22 
f 12/51/21 41/33/22 9/50/21 


