


mtllib 海信\第三方系统.mtl





v  -138.4796 -32.6260 -180.3625
v  -142.6347 -32.6260 -188.5174
v  -149.6311 -18.8628 -183.4342
v  -146.7043 -18.8628 -177.6901
v  -149.1064 -32.6260 -194.9891
v  -154.1896 -18.8628 -187.9927
v  -157.2612 -32.6260 -199.1442
v  -159.9336 -18.8628 -190.9194
v  -166.3010 -32.6260 -200.5760
v  -166.3010 -18.8628 -191.9279
v  -175.3407 -32.6260 -199.1442
v  -172.6683 -18.8628 -190.9194
v  -183.4955 -32.6260 -194.9891
v  -178.4124 -18.8628 -187.9927
v  -189.9673 -32.6260 -188.5174
v  -182.9709 -18.8628 -183.4342
v  -194.1224 -32.6260 -180.3625
v  -185.8976 -18.8628 -177.6901
v  -195.5541 -32.6260 -171.3228
v  -186.9061 -18.8628 -171.3228
v  -194.1224 -32.6260 -162.2831
v  -185.8976 -18.8628 -164.9555
v  -189.9673 -32.6260 -154.1283
v  -182.9709 -18.8628 -159.2114
v  -183.4955 -32.6260 -147.6565
v  -178.4124 -18.8628 -154.6529
v  -175.3407 -32.6260 -143.5014
v  -172.6683 -18.8628 -151.7262
v  -166.3010 -32.6260 -142.0697
v  -166.3010 -18.8628 -150.7177
v  -157.2613 -32.6260 -143.5014
v  -159.9336 -18.8628 -151.7262
v  -149.1064 -32.6260 -147.6565
v  -154.1896 -18.8628 -154.6529
v  -142.6347 -32.6260 -154.1283
v  -149.6311 -18.8628 -159.2114
v  -138.4796 -32.6260 -162.2831
v  -146.7043 -18.8628 -164.9555
v  -137.0478 -32.6260 -171.3228
v  -145.6959 -18.8628 -171.3228
v  -166.3010 -18.8628 -171.3228
v  -196.2381 -32.1671 -136.5009
v  -196.2381 -43.9629 -136.5009
v  -135.7144 -43.9629 -136.5009
v  -135.7144 -32.1671 -136.5009
v  -196.2381 -43.9629 -207.7040
v  -196.2381 -32.1671 -207.7040
v  -135.7144 -32.1671 -207.7040
v  -135.7144 -43.9629 -207.7040
v  -130.3747 -32.1671 -141.8406
v  -130.3747 -43.9629 -141.8406
v  -130.3747 -43.9629 -202.3643
v  -130.3747 -32.1671 -202.3643
v  -201.5778 -32.1671 -202.3643
v  -201.5778 -43.9629 -202.3643
v  -201.5778 -43.9629 -141.8406
v  -201.5778 -32.1671 -141.8406
v  -201.1714 -43.9629 -139.7972
v  -201.1714 -32.1671 -139.7972
v  -200.0139 -43.9629 -138.0649
v  -200.0139 -32.1671 -138.0649
v  -198.2815 -43.9629 -136.9074
v  -198.2815 -32.1671 -136.9074
v  -133.6710 -43.9629 -136.9074
v  -133.6710 -32.1671 -136.9074
v  -131.9387 -43.9629 -138.0649
v  -131.9387 -32.1671 -138.0649
v  -130.7812 -43.9629 -139.7972
v  -130.7812 -32.1671 -139.7972
v  -201.1714 -32.1671 -204.4078
v  -201.1714 -43.9629 -204.4078
v  -200.0139 -32.1671 -206.1401
v  -200.0139 -43.9629 -206.1401
v  -198.2815 -32.1671 -207.2976
v  -198.2815 -43.9629 -207.2976
v  -133.6710 -32.1671 -207.2976
v  -133.6710 -43.9629 -207.2976
v  -131.9387 -32.1671 -206.1401
v  -131.9387 -43.9629 -206.1401
v  -130.7812 -32.1671 -204.4078
v  -130.7812 -43.9629 -204.4078
v  -165.9981 -32.1671 -172.1339
v  -165.9763 -43.9629 -172.1025
v  -196.2381 -71.3941 -136.5009
v  -196.2381 -87.8148 -136.5009
v  -135.7144 -87.8148 -136.5009
v  -135.7144 -71.3941 -136.5009
v  -196.2381 -87.8148 -207.7040
v  -196.2381 -71.3941 -207.7040
v  -135.7144 -71.3941 -207.7040
v  -135.7144 -87.8148 -207.7040
v  -130.3747 -71.3941 -141.8406
v  -130.3747 -87.8148 -141.8406
v  -130.3747 -87.8148 -202.3643
v  -130.3747 -71.3941 -202.3643
v  -201.5778 -71.3941 -202.3643
v  -201.5778 -87.8148 -202.3643
v  -201.5778 -87.8148 -141.8406
v  -201.5778 -71.3941 -141.8406
v  -201.1714 -87.8148 -139.7972
v  -201.1714 -71.3941 -139.7972
v  -200.0139 -87.8148 -138.0649
v  -200.0139 -71.3941 -138.0649
v  -198.2815 -87.8148 -136.9074
v  -198.2815 -71.3941 -136.9074
v  -133.6710 -87.8148 -136.9074
v  -133.6710 -71.3941 -136.9074
v  -131.9387 -87.8148 -138.0649
v  -131.9387 -71.3941 -138.0649
v  -130.7812 -87.8148 -139.7972
v  -130.7812 -71.3941 -139.7972
v  -201.1714 -71.3941 -204.4078
v  -201.1714 -87.8148 -204.4078
v  -200.0139 -71.3941 -206.1401
v  -200.0139 -87.8148 -206.1401
v  -198.2815 -71.3941 -207.2976
v  -198.2815 -87.8148 -207.2976
v  -133.6710 -71.3941 -207.2976
v  -133.6710 -87.8148 -207.2976
v  -131.9387 -71.3941 -206.1401
v  -131.9387 -87.8148 -206.1401
v  -130.7812 -71.3941 -204.4078
v  -130.7812 -87.8148 -204.4078
v  -165.9981 -71.3941 -172.1339
v  -190.1650 -43.4973 -143.6456
v  -190.1650 -71.9621 -143.6456
v  -141.7875 -71.9621 -143.6456
v  -141.7875 -43.4973 -143.6456
v  -190.1650 -71.9621 -200.5593
v  -190.1650 -43.4973 -200.5593
v  -141.7875 -43.4973 -200.5593
v  -141.7875 -71.9621 -200.5593
v  -137.5194 -43.4973 -147.9137
v  -137.5194 -71.9621 -147.9137
v  -137.5194 -71.9621 -196.2912
v  -137.5194 -43.4973 -196.2912
v  -194.4331 -43.4973 -196.2912
v  -194.4331 -71.9621 -196.2912
v  -194.4331 -71.9621 -147.9137
v  -194.4331 -43.4973 -147.9137
v  -194.1082 -71.9621 -146.2804
v  -194.1082 -43.4973 -146.2804
v  -193.1830 -71.9621 -144.8958
v  -193.1830 -43.4973 -144.8958
v  -191.7983 -71.9621 -143.9705
v  -191.7983 -43.4973 -143.9705
v  -140.1542 -71.9621 -143.9705
v  -140.1542 -43.4973 -143.9705
v  -138.7695 -71.9621 -144.8958
v  -138.7695 -43.4973 -144.8958
v  -137.8443 -71.9621 -146.2804
v  -137.8443 -43.4973 -146.2804
v  -194.1082 -43.4973 -197.9245
v  -194.1082 -71.9621 -197.9245
v  -193.1830 -43.4973 -199.3092
v  -193.1830 -71.9621 -199.3092
v  -191.7983 -43.4973 -200.2344
v  -191.7983 -71.9621 -200.2344
v  -140.1542 -43.4973 -200.2344
v  -140.1542 -71.9621 -200.2344
v  -138.7695 -43.4973 -199.3092
v  -138.7695 -71.9621 -199.3092
v  -137.8443 -43.4973 -197.9245
v  -137.8443 -71.9621 -197.9245


vn 0.8053 0.5320 -0.2617
vn 0.6850 0.5320 -0.4977
vn 0.4977 0.5320 -0.6850
vn 0.2617 0.5320 -0.8053
vn 0.0000 0.5320 -0.8467
vn -0.2617 0.5320 -0.8053
vn -0.4977 0.5320 -0.6850
vn -0.6850 0.5320 -0.4977
vn -0.8053 0.5320 -0.2617
vn -0.8467 0.5320 0.0000
vn -0.8053 0.5320 0.2617
vn -0.6850 0.5320 0.4977
vn -0.4977 0.5320 0.6850
vn -0.2617 0.5320 0.8053
vn 0.0000 0.5320 0.8467
vn 0.2617 0.5320 0.8053
vn 0.4977 0.5320 0.6850
vn 0.6850 0.5320 0.4977
vn 0.8053 0.5320 0.2617
vn 0.8467 0.5320 0.0000
vn 0.0000 1.0000 0.0000
vn 0.0000 1.0000 -0.0000
vn -0.0065 -0.0000 1.0000
vn 0.0065 -0.0000 1.0000
vn -0.0065 0.0000 -1.0000
vn 0.0065 0.0000 -1.0000
vn 1.0000 -0.0000 0.0065
vn 1.0000 0.0000 -0.0065
vn -1.0000 0.0000 -0.0065
vn -1.0000 -0.0000 0.0065
vn -0.9239 -0.0000 0.3827
vn -0.7071 -0.0000 0.7071
vn -0.3827 -0.0000 0.9239
vn 0.3827 -0.0000 0.9239
vn 0.7071 -0.0000 0.7071
vn 0.9239 -0.0000 0.3827
vn -0.9239 0.0000 -0.3827
vn -0.7071 0.0000 -0.7071
vn -0.3827 0.0000 -0.9239
vn 0.3827 0.0000 -0.9239
vn 0.7071 0.0000 -0.7071
vn 0.9239 0.0000 -0.3827
vn 0.0000 -1.0000 0.0000
vn 0.0000 -1.0000 -0.0000


vt 0.4752 0.8687 0.0000
vt 0.5331 0.8687 0.0000
vt 0.5331 0.9930 0.0000
vt 0.4752 0.9930 0.0000
vt 0.5910 0.8687 0.0000
vt 0.5910 0.9930 0.0000
vt 0.4173 0.8687 0.0000
vt 0.4173 0.9930 0.0000
vt 0.3593 0.8687 0.0000
vt 0.3593 0.9930 0.0000
vt 0.3013 0.8687 0.0000
vt 0.3013 0.9930 0.0000
vt 0.2431 0.8687 0.0000
vt 0.2431 0.9930 0.0000
vt 0.1845 0.8687 0.0000
vt 0.1845 0.9930 0.0000
vt 0.1259 0.8687 0.0000
vt 0.1259 0.9930 0.0000
vt 0.0677 0.8687 0.0000
vt 0.0677 0.9930 0.0000
vt 0.0096 0.8687 0.0000
vt 0.0096 0.9930 0.0000
vt 0.7998 0.4350 0.0000
vt 0.8247 0.4477 0.0000
vt 0.7723 0.5198 0.0000
vt 0.8444 0.4674 0.0000
vt 0.8570 0.4923 0.0000
vt 0.8614 0.5198 0.0000
vt 0.8570 0.5474 0.0000
vt 0.8444 0.5722 0.0000
vt 0.8247 0.5919 0.0000
vt 0.7998 0.6046 0.0000
vt 0.7723 0.6090 0.0000
vt 0.7447 0.6046 0.0000
vt 0.7199 0.5919 0.0000
vt 0.7001 0.5722 0.0000
vt 0.6875 0.5474 0.0000
vt 0.6831 0.5198 0.0000
vt 0.6875 0.4923 0.0000
vt 0.7001 0.4674 0.0000
vt 0.7199 0.4477 0.0000
vt 0.7447 0.4350 0.0000
vt 0.7723 0.4307 0.0000
vt 0.0671 0.1885 0.0000
vt 0.0671 0.1474 0.0000
vt 0.4425 0.1474 0.0000
vt 0.4425 0.1885 0.0000
vt 0.4942 0.1474 0.0000
vt 0.4942 0.1885 0.0000
vt 0.8697 0.1885 0.0000
vt 0.8697 0.1474 0.0000
vt 0.0154 0.1474 0.0000
vt 0.0283 0.1474 0.0000
vt 0.0283 0.1885 0.0000
vt 0.0154 0.1885 0.0000
vt 0.0412 0.1474 0.0000
vt 0.0412 0.1885 0.0000
vt 0.0542 0.1474 0.0000
vt 0.0542 0.1885 0.0000
vt 0.4555 0.1474 0.0000
vt 0.4555 0.1885 0.0000
vt 0.4684 0.1474 0.0000
vt 0.4684 0.1885 0.0000
vt 0.4813 0.1474 0.0000
vt 0.4813 0.1885 0.0000
vt 0.4554 0.1885 0.0000
vt 0.4554 0.1474 0.0000
vt 0.9214 0.1885 0.0000
vt 0.9084 0.1885 0.0000
vt 0.9084 0.1474 0.0000
vt 0.9214 0.1474 0.0000
vt 0.8955 0.1885 0.0000
vt 0.8955 0.1474 0.0000
vt 0.8826 0.1885 0.0000
vt 0.8826 0.1474 0.0000
vt 0.5923 0.6933 0.0000
vt 0.5877 0.7002 0.0000
vt 0.4519 0.5646 0.0000
vt 0.5808 0.7049 0.0000
vt 0.5727 0.7065 0.0000
vt 0.3313 0.7065 0.0000
vt 0.3231 0.7049 0.0000
vt 0.3162 0.7002 0.0000
vt 0.3116 0.6933 0.0000
vt 0.3100 0.6852 0.0000
vt 0.3100 0.4438 0.0000
vt 0.3116 0.4356 0.0000
vt 0.3162 0.4287 0.0000
vt 0.3231 0.4241 0.0000
vt 0.3313 0.4225 0.0000
vt 0.5727 0.4225 0.0000
vt 0.5808 0.4241 0.0000
vt 0.5877 0.4287 0.0000
vt 0.5923 0.4356 0.0000
vt 0.5940 0.4438 0.0000
vt 0.5940 0.6852 0.0000
vt 0.4520 0.5645 0.0000
vt 0.0671 0.1403 0.0000
vt 0.4425 0.1403 0.0000
vt 0.4942 0.1403 0.0000
vt 0.8697 0.1403 0.0000
vt 0.0154 0.1403 0.0000
vt 0.0283 0.1403 0.0000
vt 0.0412 0.1403 0.0000
vt 0.0542 0.1403 0.0000
vt 0.4555 0.1403 0.0000
vt 0.4684 0.1403 0.0000
vt 0.4813 0.1403 0.0000
vt 0.4554 0.1403 0.0000
vt 0.9084 0.1403 0.0000
vt 0.9214 0.1403 0.0000
vt 0.8955 0.1403 0.0000
vt 0.8826 0.1403 0.0000
vt 0.0419 0.8638 0.0000
vt 0.0419 0.7172 0.0000
vt 0.2854 0.7172 0.0000
vt 0.2854 0.8638 0.0000
vt 0.3189 0.7172 0.0000
vt 0.3189 0.8638 0.0000
vt 0.5624 0.8638 0.0000
vt 0.5624 0.7172 0.0000
vt 0.0084 0.7172 0.0000
vt 0.0167 0.7172 0.0000
vt 0.0167 0.8638 0.0000
vt 0.0084 0.8638 0.0000
vt 0.0251 0.7172 0.0000
vt 0.0251 0.8638 0.0000
vt 0.0335 0.7172 0.0000
vt 0.0335 0.8638 0.0000
vt 0.2938 0.7172 0.0000
vt 0.2938 0.8638 0.0000
vt 0.3022 0.7172 0.0000
vt 0.3022 0.8638 0.0000
vt 0.3105 0.7172 0.0000
vt 0.3105 0.8638 0.0000
vt 0.3021 0.8638 0.0000
vt 0.3021 0.7172 0.0000
vt 0.5960 0.8638 0.0000
vt 0.5876 0.8638 0.0000
vt 0.5876 0.7172 0.0000
vt 0.5960 0.7172 0.0000
vt 0.5792 0.8638 0.0000
vt 0.5792 0.7172 0.0000
vt 0.5708 0.8638 0.0000
vt 0.5708 0.7172 0.0000


g polySurface2
usemtl lambert2
s off
f 1/1/1 2/2/2 3/3/2 4/4/1 
f 2/2/2 5/5/3 6/6/3 3/3/2 
f 5/5/3 7/2/4 8/3/4 6/6/3 
f 7/2/4 9/1/5 10/4/5 8/3/4 
f 9/1/5 11/7/6 12/8/6 10/4/5 
f 11/7/6 13/9/7 14/10/7 12/8/6 
f 13/9/7 15/11/8 16/12/8 14/10/7 
f 15/11/8 17/13/9 18/14/9 16/12/8 
f 17/13/9 19/15/10 20/16/10 18/14/9 
f 19/15/10 21/17/11 22/18/11 20/16/10 
f 21/17/11 23/19/12 24/20/12 22/18/11 
f 23/19/12 25/21/13 26/22/13 24/20/12 
f 25/21/13 27/19/14 28/20/14 26/22/13 
f 27/19/14 29/17/15 30/18/15 28/20/14 
f 29/17/15 31/15/16 32/16/16 30/18/15 
f 31/15/16 33/13/17 34/14/17 32/16/16 
f 33/13/17 35/11/18 36/12/18 34/14/17 
f 35/11/18 37/9/19 38/10/19 36/12/18 
f 37/9/19 39/7/20 40/8/20 38/10/19 
f 39/7/20 1/1/1 4/4/1 40/8/20 
f 4/23/21 3/24/21 41/25/21 
f 3/24/21 6/26/21 41/25/21 
f 6/26/21 8/27/21 41/25/21 
f 8/27/21 10/28/21 41/25/21 
f 10/28/21 12/29/21 41/25/21 
f 12/29/21 14/30/22 41/25/21 
f 14/30/22 16/31/22 41/25/21 
f 16/31/22 18/32/22 41/25/21 
f 18/32/22 20/33/21 41/25/21 
f 20/33/21 22/34/21 41/25/21 
f 22/34/21 24/35/21 41/25/21 
f 24/35/21 26/36/21 41/25/21 
f 26/36/21 28/37/22 41/25/21 
f 28/37/22 30/38/21 41/25/21 
f 30/38/21 32/39/21 41/25/21 
f 32/39/21 34/40/21 41/25/21 
f 34/40/21 36/41/21 41/25/21 
f 36/41/21 38/42/21 41/25/21 
f 38/42/21 40/43/21 41/25/21 
f 40/43/21 4/23/21 41/25/21 
f 42/44/23 43/45/23 44/46/24 45/47/24 
f 46/48/25 47/49/25 48/50/26 49/51/26 
f 50/49/27 51/48/27 52/51/28 53/50/28 
f 54/47/29 55/46/29 56/45/30 57/44/30 
f 56/52/30 58/53/31 59/54/31 57/55/30 
f 58/53/31 60/56/32 61/57/32 59/54/31 
f 60/56/32 62/58/33 63/59/33 61/57/32 
f 62/58/33 43/45/23 42/44/23 63/59/33 
f 44/46/24 64/60/34 65/61/34 45/47/24 
f 64/60/34 66/62/35 67/63/35 65/61/34 
f 66/62/35 68/64/36 69/65/36 67/63/35 
f 68/64/36 51/48/27 50/49/27 69/65/36 
f 54/47/29 70/66/37 71/67/37 55/46/29 
f 70/66/37 72/63/38 73/62/38 71/67/37 
f 72/63/38 74/65/39 75/64/39 73/62/38 
f 74/65/39 47/49/25 46/48/25 75/64/39 
f 48/68/26 76/69/40 77/70/40 49/71/26 
f 76/69/40 78/72/41 79/73/41 77/70/40 
f 78/72/41 80/74/42 81/75/42 79/73/41 
f 80/74/42 53/50/28 52/51/28 81/75/42 
f 80/76/21 78/77/21 82/78/21 
f 78/77/21 76/79/21 82/78/21 
f 76/79/21 48/80/22 82/78/21 
f 48/80/22 47/81/22 82/78/21 
f 47/81/22 74/82/21 82/78/21 
f 74/82/21 72/83/21 82/78/21 
f 72/83/21 70/84/22 82/78/21 
f 70/84/22 54/85/21 82/78/21 
f 54/85/21 57/86/21 82/78/21 
f 57/86/21 59/87/21 82/78/21 
f 59/87/21 61/88/21 82/78/21 
f 61/88/21 63/89/22 82/78/21 
f 63/89/22 42/90/21 82/78/21 
f 45/91/21 65/92/21 82/78/21 
f 65/92/21 67/93/21 82/78/21 
f 67/93/21 69/94/21 82/78/21 
f 69/94/21 50/95/21 82/78/21 
f 53/96/21 80/76/21 82/78/21 
f 45/91/21 82/78/21 42/90/21 
f 53/96/21 82/78/21 50/95/21 
f 52/96/43 51/95/44 83/97/44 
f 51/95/44 68/94/44 83/97/44 
f 68/94/44 66/93/44 83/97/44 
f 66/93/44 64/92/44 83/97/44 
f 64/92/44 44/91/44 83/97/44 
f 44/91/44 43/90/44 83/97/44 
f 43/90/44 62/89/44 83/97/44 
f 62/89/44 60/88/44 83/97/44 
f 60/88/44 58/87/44 83/97/44 
f 58/87/44 56/86/44 83/97/44 
f 56/86/44 55/85/44 83/97/44 
f 55/85/44 71/84/44 83/97/44 
f 71/84/44 73/83/44 83/97/44 
f 73/83/44 75/82/44 83/97/44 
f 75/82/44 46/81/44 83/97/44 
f 46/81/44 49/80/44 83/97/44 
f 49/80/44 77/79/44 83/97/44 
f 77/79/44 79/77/44 83/97/44 
f 79/77/44 81/76/43 83/97/44 
f 81/76/43 52/96/43 83/97/44 
f 84/44/23 85/98/23 86/99/24 87/47/24 
f 88/100/25 89/49/25 90/50/26 91/101/26 
f 92/49/27 93/100/27 94/101/28 95/50/28 
f 96/47/29 97/99/29 98/98/30 99/44/30 
f 98/102/30 100/103/31 101/54/31 99/55/30 
f 100/103/31 102/104/32 103/57/32 101/54/31 
f 102/104/32 104/105/33 105/59/33 103/57/32 
f 104/105/33 85/98/23 84/44/23 105/59/33 
f 86/99/24 106/106/34 107/61/34 87/47/24 
f 106/106/34 108/107/35 109/63/35 107/61/34 
f 108/107/35 110/108/36 111/65/36 109/63/35 
f 110/108/36 93/100/27 92/49/27 111/65/36 
f 96/47/29 112/66/37 113/109/37 97/99/29 
f 112/66/37 114/63/38 115/107/38 113/109/37 
f 114/63/38 116/65/39 117/108/39 115/107/38 
f 116/65/39 89/49/25 88/100/25 117/108/39 
f 90/68/26 118/69/40 119/110/40 91/111/26 
f 118/69/40 120/72/41 121/112/41 119/110/40 
f 120/72/41 122/74/42 123/113/42 121/112/41 
f 122/74/42 95/50/28 94/101/28 123/113/42 
f 122/76/21 120/77/21 124/78/21 
f 120/77/21 118/79/21 124/78/21 
f 118/79/21 90/80/22 124/78/21 
f 90/80/22 89/81/21 124/78/21 
f 89/81/21 116/82/21 124/78/21 
f 116/82/21 114/83/21 124/78/21 
f 114/83/21 112/84/21 124/78/21 
f 112/84/21 96/85/21 124/78/21 
f 96/85/21 99/86/21 124/78/21 
f 99/86/21 101/87/21 124/78/21 
f 101/87/21 103/88/21 124/78/21 
f 103/88/21 105/89/21 124/78/21 
f 105/89/21 84/90/21 124/78/21 
f 87/91/21 107/92/22 124/78/21 
f 107/92/22 109/93/22 124/78/21 
f 109/93/22 111/94/21 124/78/21 
f 111/94/21 92/95/21 124/78/21 
f 95/96/21 122/76/21 124/78/21 
f 87/91/21 124/78/21 84/90/21 
f 95/96/21 124/78/21 92/95/21 
f 125/114/23 126/115/23 127/116/24 128/117/24 
f 129/118/25 130/119/25 131/120/26 132/121/26 
f 133/119/27 134/118/27 135/121/28 136/120/28 
f 137/117/29 138/116/29 139/115/30 140/114/30 
f 139/122/30 141/123/31 142/124/31 140/125/30 
f 141/123/31 143/126/32 144/127/32 142/124/31 
f 143/126/32 145/128/33 146/129/33 144/127/32 
f 145/128/33 126/115/23 125/114/23 146/129/33 
f 127/116/24 147/130/34 148/131/34 128/117/24 
f 147/130/34 149/132/35 150/133/35 148/131/34 
f 149/132/35 151/134/36 152/135/36 150/133/35 
f 151/134/36 134/118/27 133/119/27 152/135/36 
f 137/117/29 153/131/37 154/130/37 138/116/29 
f 153/131/37 155/136/38 156/137/38 154/130/37 
f 155/136/38 157/135/39 158/134/39 156/137/38 
f 157/135/39 130/119/25 129/118/25 158/134/39 
f 131/138/26 159/139/40 160/140/40 132/141/26 
f 159/139/40 161/142/41 162/143/41 160/140/40 
f 161/142/41 163/144/42 164/145/42 162/143/41 
f 163/144/42 136/120/28 135/121/28 164/145/42 


